# Blender 4.5.12 LTS
# www.blender.org
mtllib Rock.mtl
o Cube
v -1.346786 0.000000 1.000000
v -0.524784 2.004446 0.631338
v -1.000000 0.000000 -1.192050
v -0.518392 2.072055 -0.610723
v 1.000000 0.000000 1.259126
v 0.798423 1.989016 0.642998
v 1.000000 0.000000 -1.192050
v 1.055637 2.007623 -0.563535
v -1.346786 0.000000 0.000000
v -1.346786 1.000000 1.000000
v -0.475846 2.000000 0.000000
v -1.000000 1.000000 -1.192050
v 0.060726 -0.093665 -1.202852
v 0.183569 2.146640 -0.740979
v 1.000000 1.000000 -1.192050
v 1.631919 0.000000 0.000000
v 1.000000 2.000000 0.000000
v 1.000000 1.000000 1.000000
v 0.000000 0.000000 1.259126
v 0.040068 2.095856 0.816458
v 0.000000 2.000000 0.000000
v 0.000000 0.000000 0.000000
v 0.040068 1.095856 0.816458
v 1.631919 1.000000 0.000000
v 0.000000 1.000000 -1.192050
v -1.346786 1.000000 0.000000
v -1.346786 0.000000 0.500000
v -1.007827 1.534581 0.782005
v -0.412922 2.118336 -0.341227
v -1.000000 0.500000 -1.192050
v -0.578673 -0.005604 -1.211261
v 0.574695 2.167037 -0.769414
v 0.900786 0.553813 -1.194402
v 1.631919 0.000000 -0.500000
v 1.040068 2.095856 0.316458
v 0.904680 0.506037 1.201463
v 0.500000 0.000000 1.259126
v -0.157726 2.095856 0.816458
v -1.400263 -0.000000 -0.422335
v -1.346786 0.500000 1.000000
v -0.435779 2.095856 0.316458
v -1.000000 1.500000 -1.000000
v 0.775194 0.004892 -1.375299
v -0.126437 2.135415 -0.791987
v 1.000000 1.500000 -1.000000
v 1.631919 0.000000 0.500000
v 1.036524 1.864556 -0.275361
v 1.000000 1.500000 1.000000
v -0.500000 0.000000 1.259126
v 0.540068 2.095856 0.816458
v 0.040068 2.095856 0.316458
v 0.173828 2.118336 -0.341227
v 0.540068 2.095856 -0.183542
v -0.197794 2.000000 0.000000
v 0.000000 0.000000 0.500000
v 0.000000 0.000000 -0.500000
v -0.500000 0.000000 0.000000
v 0.500000 0.000000 0.000000
v -0.500000 1.000000 1.000000
v 0.500000 1.000000 1.000000
v -0.062350 0.516787 1.218047
v 0.040068 1.595856 0.816458
v 1.290421 0.999999 0.653829
v 1.518744 0.955661 -0.540690
v 1.631919 0.500000 0.000000
v 1.000000 1.500000 0.000000
v 0.500000 1.000000 -1.192050
v -0.500000 1.000000 -1.192050
v -0.146958 0.423598 -1.267293
v 0.000000 1.500000 -1.000000
v -1.346786 1.000000 -0.500000
v -1.346786 1.000000 0.500000
v -1.346786 0.500000 0.000000
v -1.000000 1.500000 0.000000
v -1.019146 1.513102 0.302417
v -1.346786 0.500000 0.500000
v -1.346786 0.500000 -0.500000
v -0.326172 1.618336 -0.841227
v -0.716853 0.432476 -1.282296
v 0.285701 0.440087 -1.278100
v 1.000000 1.500000 -0.500000
v 1.631919 0.500000 -0.500000
v 1.631919 0.500000 0.500000
v 0.540068 1.595856 0.816458
v 0.391306 0.627960 1.161680
v -0.744037 0.483875 1.119766
v 0.500000 0.000000 -0.500000
v -0.500000 0.000000 -0.500000
v -0.500000 0.000000 0.500000
v -0.134869 2.118336 -0.341227
v 0.673828 2.118336 -0.341227
v 0.540068 2.095856 0.316458
v -0.157726 2.095856 0.316458
v 0.500000 0.000000 0.500000
v -0.500000 1.500000 1.000000
v 1.040068 1.595856 0.316458
v 0.500000 1.500000 -1.000000
v -1.000000 1.500000 -0.500000
vn -0.8137 0.5801 -0.0378
vn -0.7314 0.6798 0.0535
vn -0.7572 0.6500 0.0647
vn -0.8668 0.4764 -0.1470
vn 0.0493 0.3836 -0.9222
vn 0.1126 0.4124 -0.9040
vn 0.2532 0.4563 -0.8530
vn 0.1312 0.4128 -0.9013
vn 0.8550 0.4491 0.2595
vn 0.9029 0.2964 0.3113
vn 0.9003 0.3007 0.3149
vn -0.2789 0.4098 0.8685
vn -0.3824 0.5329 0.7549
vn -0.2362 0.3582 0.9033
vn -0.0000 -1.0000 -0.0000
vn -0.0421 0.9914 -0.1241
vn -0.0881 0.9917 -0.0931
vn -0.1655 0.9819 0.0921
vn -0.0691 0.9969 0.0384
vn 0.0476 0.9988 -0.0140
vn -0.0300 0.9948 -0.0975
vn -0.0000 1.0000 -0.0000
vn 0.0700 0.9951 0.0700
vn 0.2474 0.9638 0.0991
vn -0.0255 0.9842 0.1750
vn -0.0376 0.9989 0.0283
vn 0.0672 0.9969 0.0420
vn -0.0316 0.9845 0.1726
vn -0.0543 0.9882 0.1436
vn -0.0000 0.9448 0.3277
vn -0.0217 -0.9996 0.0197
vn 0.0012 -0.9993 0.0365
vn 0.0266 -0.9994 0.0220
vn -0.0011 -1.0000 -0.0008
vn -0.1222 0.1723 0.9774
vn -0.0579 0.3055 0.9504
vn -0.1072 0.1816 0.9775
vn -0.1650 0.1059 0.9806
vn -0.0341 0.3309 0.9431
vn -0.1075 0.3294 0.9380
vn -0.1078 0.3560 0.9282
vn -0.0302 0.2941 0.9553
vn -0.0538 0.1814 0.9819
vn 0.0390 0.1588 0.9865
vn 0.1155 0.0457 0.9923
vn 0.0951 0.0687 0.9931
vn 0.9051 0.1545 0.3962
vn 0.8367 0.3520 0.4196
vn 0.8075 0.2549 0.5319
vn 0.7177 0.1514 0.6797
vn 0.9967 0.0578 -0.0578
vn 0.9873 0.1122 -0.1122
vn 0.8884 0.4554 0.0575
vn 0.9943 0.0980 0.0409
vn 0.9956 -0.0917 0.0215
vn 0.9964 -0.0759 0.0376
vn 0.9981 -0.0214 -0.0574
vn 0.9992 -0.0315 -0.0251
vn -0.0102 0.0657 -0.9978
vn 0.0184 0.2299 -0.9731
vn 0.0318 0.2260 -0.9736
vn 0.1564 0.1476 -0.9766
vn -0.0779 -0.0047 -0.9969
vn -0.0156 0.2848 -0.9585
vn -0.0278 0.2757 -0.9608
vn -0.0256 0.0117 -0.9996
vn -0.0702 0.3946 -0.9162
vn -0.1047 0.3375 -0.9355
vn -0.0677 0.3294 -0.9418
vn -0.0669 0.3727 -0.9255
vn -0.9725 0.0169 -0.2322
vn -0.9534 0.2398 -0.1832
vn -0.9135 0.1628 -0.3728
vn -0.8922 0.0061 -0.4515
vn -1.0000 -0.0000 -0.0000
vn -0.9998 0.0145 0.0145
vn -0.7751 0.6308 -0.0364
vn -0.6995 0.7125 -0.0552
vn -0.7054 0.7083 -0.0271
vn -0.7703 0.6373 -0.0217
vn -0.8404 0.5418 -0.0128
vn -0.8283 0.5601 -0.0145
vn -0.8441 0.5362 -0.0020
vn -0.7882 0.6154 -0.0038
vn -0.7029 0.7113 -0.0061
vn -0.9992 0.0289 0.0289
vn -0.8904 0.0123 -0.4550
vn -0.9967 0.0578 0.0578
vn -0.0132 0.2700 -0.9628
vn 0.0320 0.4252 -0.9045
vn -0.0907 0.4203 -0.9029
vn -0.0580 -0.1228 -0.9907
vn -0.0914 -0.0991 -0.9909
vn -0.1627 -0.0983 -0.9818
vn -0.1304 0.0179 -0.9913
vn 0.2643 0.2468 -0.9323
vn -0.1499 -0.0758 -0.9858
vn 0.7381 0.6420 -0.2077
vn 0.7483 0.6242 -0.2247
vn 0.7132 0.7001 0.0352
vn 0.8075 0.4781 -0.3454
vn 0.9941 -0.1084 0.0044
vn 1.0000 -0.0000 -0.0000
vn 0.7128 0.0656 -0.6983
vn 0.7233 0.0229 -0.6901
vn 0.7220 0.0289 -0.6913
vn 0.7320 -0.0176 -0.6811
vn 0.7280 0.1078 0.6770
vn -0.0856 0.2731 0.9582
vn -0.0846 0.2331 0.9688
vn 0.0868 0.3538 0.9313
vn 0.0068 0.1293 0.9916
vn -0.0162 0.1382 0.9903
vn -0.0231 0.1314 0.9911
vn -0.0089 0.2423 0.9702
vn -0.1435 0.1253 0.9817
vn -0.2514 0.0743 0.9650
vn 0.0168 -0.9971 0.0736
vn 0.0407 -0.9986 0.0338
vn -0.0033 -1.0000 -0.0024
vn -0.0016 -1.0000 0.0012
vn -0.0040 -1.0000 0.0029
vn -0.0385 -0.9986 0.0349
vn -0.0211 0.9971 0.0735
vn -0.0572 0.9982 0.0179
vn -0.1013 0.9945 -0.0267
vn 0.3985 0.9155 0.0555
vn 0.2453 0.9639 -0.1037
vn 0.3784 0.9039 0.1997
vn 0.1230 0.9833 0.1345
vn 0.1452 0.9894 -0.0029
vn 0.1769 0.9682 0.1769
vn -0.0000 0.9571 -0.2899
vn 0.3218 -0.0000 0.9468
vn 0.2923 0.0295 0.9559
vn 0.2293 0.0907 0.9691
vn 0.9921 -0.0000 -0.1256
vt 0.562500 0.187500
vt 0.625000 0.187500
vt 0.625000 0.250000
vt 0.562500 0.250000
vt 0.562500 0.437500
vt 0.625000 0.437500
vt 0.625000 0.500000
vt 0.562500 0.500000
vt 0.562500 0.687500
vt 0.625000 0.687500
vt 0.625000 0.750000
vt 0.562500 0.750000
vt 0.562500 0.937500
vt 0.625000 0.937500
vt 0.625000 1.000000
vt 0.562500 1.000000
vt 0.312500 0.687500
vt 0.375000 0.687500
vt 0.375000 0.750000
vt 0.312500 0.750000
vt 0.812500 0.687500
vt 0.875000 0.687500
vt 0.875000 0.750000
vt 0.812500 0.750000
vt 0.687500 0.687500
vt 0.750000 0.687500
vt 0.750000 0.750000
vt 0.687500 0.750000
vt 0.687500 0.562500
vt 0.750000 0.562500
vt 0.750000 0.625000
vt 0.687500 0.625000
vt 0.812500 0.562500
vt 0.875000 0.562500
vt 0.875000 0.625000
vt 0.812500 0.625000
vt 0.187500 0.687500
vt 0.250000 0.687500
vt 0.250000 0.750000
vt 0.187500 0.750000
vt 0.187500 0.562500
vt 0.250000 0.562500
vt 0.250000 0.625000
vt 0.187500 0.625000
vt 0.312500 0.562500
vt 0.375000 0.562500
vt 0.375000 0.625000
vt 0.312500 0.625000
vt 0.437500 0.937500
vt 0.500000 0.937500
vt 0.500000 1.000000
vt 0.437500 1.000000
vt 0.437500 0.812500
vt 0.500000 0.812500
vt 0.500000 0.875000
vt 0.437500 0.875000
vt 0.562500 0.812500
vt 0.625000 0.812500
vt 0.625000 0.875000
vt 0.562500 0.875000
vt 0.437500 0.687500
vt 0.500000 0.687500
vt 0.500000 0.750000
vt 0.437500 0.750000
vt 0.437500 0.562500
vt 0.500000 0.562500
vt 0.500000 0.625000
vt 0.437500 0.625000
vt 0.562500 0.562500
vt 0.625000 0.562500
vt 0.625000 0.625000
vt 0.562500 0.625000
vt 0.437500 0.437500
vt 0.500000 0.437500
vt 0.500000 0.500000
vt 0.437500 0.500000
vt 0.437500 0.312500
vt 0.500000 0.312500
vt 0.500000 0.375000
vt 0.437500 0.375000
vt 0.562500 0.312500
vt 0.625000 0.312500
vt 0.625000 0.375000
vt 0.562500 0.375000
vt 0.437500 0.187500
vt 0.500000 0.187500
vt 0.500000 0.250000
vt 0.437500 0.250000
vt 0.437500 0.062500
vt 0.500000 0.062500
vt 0.500000 0.125000
vt 0.437500 0.125000
vt 0.562500 0.062500
vt 0.625000 0.062500
vt 0.625000 0.125000
vt 0.562500 0.125000
vt 0.500000 0.000000
vt 0.562500 0.000000
vt 0.625000 0.000000
vt 0.375000 0.062500
vt 0.375000 0.125000
vt 0.375000 0.000000
vt 0.437500 0.000000
vt 0.375000 0.187500
vt 0.375000 0.250000
vt 0.375000 0.312500
vt 0.375000 0.375000
vt 0.375000 0.437500
vt 0.375000 0.500000
vt 0.375000 0.812500
vt 0.375000 0.875000
vt 0.375000 0.937500
vt 0.375000 1.000000
vt 0.250000 0.500000
vt 0.312500 0.500000
vt 0.125000 0.562500
vt 0.125000 0.625000
vt 0.125000 0.500000
vt 0.187500 0.500000
vt 0.125000 0.687500
vt 0.125000 0.750000
vt 0.750000 0.500000
vt 0.812500 0.500000
vt 0.875000 0.500000
vt 0.687500 0.500000
s 1
usemtl Material.001
f 98/1/1 29/2/2 4/3/3 42/4/4
f 97/5/5 32/6/6 8/7/7 45/8/8
f 96/9/9 35/10/10 6/11/10 48/12/11
f 95/13/12 38/14/13 2/15/13 28/16/14
f 94/17/15 46/18/15 5/19/15 37/20/15
f 93/21/16 41/22/17 2/23/18 38/24/19
f 92/25/20 51/26/21 20/27/22 50/28/23
f 91/29/24 52/30/25 21/31/26 53/32/27
f 90/33/28 29/34/29 11/35/30 54/36/30
f 89/37/15 55/38/15 19/39/15 49/40/15
f 88/41/31 56/42/32 22/43/15 57/44/15
f 87/45/33 34/46/34 16/47/15 58/48/15
f 86/49/35 59/50/36 10/51/37 40/52/38
f 85/53/39 60/54/40 23/55/41 61/56/42
f 84/57/43 50/58/44 20/59/45 62/60/46
f 83/61/47 63/62/48 18/63/49 36/64/50
f 82/65/51 64/66/52 24/67/53 65/68/54
f 81/69/55 47/70/56 17/71/57 66/72/58
f 80/73/59 67/74/60 15/75/61 33/76/62
f 79/77/63 68/78/64 25/79/65 69/80/66
f 78/81/67 44/82/68 14/83/69 70/84/70
f 77/85/71 71/86/72 12/87/73 30/88/74
f 76/89/75 72/90/75 26/91/75 73/92/76
f 75/93/77 41/94/78 11/95/79 74/96/80
f 72/90/81 75/93/77 74/96/80 26/91/82
f 10/97/83 28/98/84 75/93/77 72/90/81
f 28/98/84 2/99/85 41/94/78 75/93/77
f 27/100/75 76/89/75 73/92/76 9/101/86
f 1/102/75 40/103/75 76/89/75 27/100/75
f 40/103/75 10/97/75 72/90/75 76/89/75
f 39/104/87 77/85/71 30/88/74 3/105/87
f 9/101/86 73/92/76 77/85/71 39/104/88
f 73/92/76 26/91/75 71/86/72 77/85/71
f 68/78/64 78/81/67 70/84/70 25/79/65
f 12/87/89 42/4/90 78/81/67 68/78/64
f 42/4/90 4/3/91 44/82/68 78/81/67
f 31/106/92 79/77/63 69/80/66 13/107/93
f 3/105/94 30/88/95 79/77/63 31/106/92
f 30/88/95 12/87/89 68/78/64 79/77/63
f 43/108/96 80/73/59 33/76/62 7/109/96
f 13/107/93 69/80/66 80/73/59 43/108/97
f 69/80/66 25/79/65 67/74/60 80/73/59
f 64/66/98 81/69/99 66/72/100 24/67/53
f 15/75/101 45/8/101 81/69/99 64/66/98
f 45/8/102 8/7/102 47/70/56 81/69/55
f 34/46/103 82/65/51 65/68/54 16/47/103
f 7/109/104 33/76/105 82/65/106 34/46/104
f 33/76/105 15/75/107 64/66/107 82/65/106
f 46/18/108 83/61/47 36/64/50 5/19/108
f 16/47/103 65/68/54 83/61/47 46/18/103
f 65/68/54 24/67/53 63/62/48 83/61/47
f 60/54/40 84/57/43 62/60/46 23/55/41
f 18/63/109 48/12/110 84/57/43 60/54/40
f 48/12/110 6/11/111 50/58/44 84/57/43
f 37/110/112 85/53/39 61/56/42 19/111/113
f 5/19/114 36/64/115 85/53/39 37/110/112
f 36/64/115 18/63/109 60/54/40 85/53/39
f 49/112/116 86/49/35 40/52/38 1/113/117
f 19/111/113 61/56/42 86/49/35 49/112/116
f 61/56/42 23/55/41 59/50/36 86/49/35
f 56/42/32 87/45/33 58/48/15 22/43/15
f 13/114/118 43/115/119 87/45/33 56/42/32
f 43/115/119 7/109/120 34/46/34 87/45/33
f 39/116/121 88/41/31 57/44/15 9/117/15
f 3/118/122 31/119/123 88/41/31 39/116/121
f 31/119/123 13/114/118 56/42/32 88/41/31
f 27/120/15 89/37/15 49/40/15 1/121/15
f 9/117/15 57/44/15 89/37/15 27/120/15
f 57/44/15 22/43/15 55/38/15 89/37/15
f 52/30/25 90/33/28 54/36/30 21/31/26
f 14/122/124 44/123/125 90/33/28 52/30/25
f 44/123/125 4/124/126 29/34/29 90/33/28
f 47/70/127 91/29/24 53/32/27 17/71/128
f 8/7/129 32/125/130 91/29/24 47/70/127
f 32/125/130 14/122/124 52/30/25 91/29/24
f 35/10/131 92/25/20 50/28/23 6/11/132
f 17/71/128 53/32/27 92/25/20 35/10/131
f 53/32/27 21/31/26 51/26/21 92/25/20
f 51/26/21 93/21/16 38/24/19 20/27/22
f 21/31/26 54/36/133 93/21/16 51/26/21
f 54/36/133 11/35/133 41/22/17 93/21/16
f 55/38/15 94/17/15 37/20/15 19/39/15
f 22/43/15 58/48/15 94/17/15 55/38/15
f 58/48/15 16/47/15 46/18/15 94/17/15
f 59/50/36 95/13/12 28/16/14 10/51/37
f 23/55/134 62/60/46 95/13/135 59/50/134
f 62/60/46 20/59/45 38/14/136 95/13/135
f 63/62/48 96/9/9 48/12/11 18/63/49
f 24/67/53 66/72/100 96/9/9 63/62/48
f 66/72/58 17/71/57 35/10/137 96/9/137
f 67/74/60 97/5/5 45/8/8 15/75/61
f 25/79/65 70/84/70 97/5/5 67/74/60
f 70/84/70 14/83/69 32/6/6 97/5/5
f 71/86/72 98/1/1 42/4/4 12/87/73
f 26/91/82 74/96/80 98/1/1 71/86/72
f 74/96/80 11/95/79 29/2/2 98/1/1
