# Blender 5.2.0 LTS
# www.blender.org
mtllib Rock.2obj.mtl
o Cube
v -1.451687 0.009957 1.939539
v -0.506805 1.890501 0.750624
v -0.874511 0.060133 -1.667398
v -0.674654 1.964215 -0.513317
v 0.915362 -0.176793 2.508056
v 0.642161 1.881175 0.740403
v 1.838784 -0.034112 -0.351215
v 1.055637 2.007623 -0.563535
v -1.221297 0.060133 -0.475347
v -1.451687 1.009957 1.939539
v -0.457867 1.886055 0.119286
v -0.874511 1.060133 -1.667398
v 0.186215 -0.033533 -1.678199
v 0.183569 2.146640 -0.740979
v 1.379090 1.157951 -0.916614
v 1.490536 -0.137343 0.434362
v 1.000000 2.000000 0.000000
v 0.915362 0.823207 2.248930
v -0.084638 -0.176793 2.508056
v 0.040068 2.095856 0.816458
v -0.156262 2.733207 0.097406
v 0.000000 0.000000 0.000000
v -0.064834 1.105813 1.755997
v 1.490536 0.862657 0.434362
v -0.030773 0.952292 -1.569992
v -1.221297 1.060133 -0.475347
v -1.221297 0.060133 0.024653
v -1.007827 1.534581 0.782005
v -0.569184 2.010496 -0.243821
v -0.874511 0.560133 -1.667398
v -0.453184 0.054528 -1.686608
v 0.574695 2.167037 -0.769414
v 1.739570 0.519702 -0.353566
v 1.490536 -0.137343 -0.065638
v 0.883805 1.988015 0.413863
v 0.820043 0.329244 2.450394
v 0.415362 -0.176793 2.508056
v -0.157726 2.095856 0.816458
v -1.274774 0.060132 -0.897682
v -1.451687 0.509957 1.939539
v -0.417800 1.981910 0.435744
v -1.000000 1.500000 -1.000000
v 0.900683 0.065024 -1.850646
v -0.282699 2.027575 -0.694582
v 1.240048 1.462274 -0.815321
v 1.527017 0.009957 1.439539
v 1.036524 1.864556 -0.275361
v 1.000000 1.500000 1.000000
v -0.584638 -0.176793 2.508056
v 0.540068 2.095856 0.816458
v -0.116195 2.829063 0.413863
v 0.017566 2.851543 -0.243821
v 0.383806 2.829063 -0.086137
v -0.197794 2.000000 0.000000
v 0.000000 0.000000 0.500000
v 0.000000 0.000000 -0.500000
v -0.500000 0.000000 0.000000
v 0.500000 0.000000 0.000000
v -0.604902 1.009957 1.939539
v 0.415362 0.823207 2.248930
v -0.146987 0.339994 2.466978
v 0.242060 1.487389 1.016518
v 1.205783 0.823206 1.902759
v 1.377362 0.818318 -0.106329
v 1.527017 0.509957 0.939539
v 1.000000 1.500000 0.000000
v 0.625489 1.060133 -1.667398
v -0.374511 1.060133 -1.667398
v -0.021469 0.483731 -1.742641
v 0.000000 1.500000 -1.000000
v -1.221297 1.060133 -0.975347
v -1.451687 1.009957 1.439539
v -1.221297 0.560133 -0.475347
v -1.000000 1.500000 0.000000
v -1.019146 1.513102 0.302417
v -1.221297 0.560133 0.024653
v -1.221297 0.560133 -0.975347
v -0.326172 1.618336 -0.841227
v -0.591364 0.492609 -1.757643
v 0.411190 0.500219 -1.753447
v 1.240048 1.462274 -0.315321
v 1.490536 0.362657 -0.065638
v 1.547281 0.323207 1.748930
v 0.742060 1.487389 1.016518
v 0.306668 0.451167 2.410610
v -0.848938 0.493832 2.059305
v 0.500000 0.000000 -0.500000
v -0.500000 0.000000 -0.500000
v -0.500000 0.000000 0.500000
v -0.249538 2.576367 -0.553074
v 0.673828 2.118336 -0.341227
v 0.383806 2.829063 0.413863
v -0.139747 1.981910 0.435744
v 0.500000 0.000000 0.500000
v -0.586923 1.396011 2.058825
v 1.040068 1.595856 0.316458
v 0.740048 1.462274 -0.815321
v -1.000000 1.500000 -0.500000
vn -0.8427 0.5376 0.0282
vn -0.7421 0.6522 0.1547
vn -0.8154 0.5737 0.0773
vn -0.8672 0.4675 -0.1716
vn 0.1977 0.2584 -0.9456
vn 0.1773 0.2444 -0.9533
vn 0.2413 0.2882 -0.9267
vn 0.8845 0.4376 0.1618
vn 0.8473 0.4531 0.2771
vn 0.6636 0.5286 0.5293
vn 0.6995 0.6062 0.3783
vn -0.4583 0.7847 0.4174
vn -0.4270 0.8996 0.0917
vn -0.5169 0.8484 0.1141
vn -0.6488 0.7511 0.1217
vn -0.0385 -0.9993 0.0012
vn 0.0074 -0.9992 -0.0396
vn 0.0690 -0.9924 -0.1017
vn 0.0336 -0.9950 -0.0945
vn -0.2638 0.9617 -0.0746
vn -0.4056 0.9117 -0.0652
vn -0.0000 0.4813 0.8766
vn -0.0000 0.4122 0.9111
vn -0.0000 0.3857 0.9226
vn 0.5777 0.6518 -0.4913
vn 0.3330 0.7736 -0.5390
vn 0.2864 0.7818 -0.5538
vn 0.3746 0.7497 -0.5456
vn -0.3768 0.7022 0.6042
vn -0.0504 -0.9977 -0.0449
vn -0.0000 -0.9990 -0.0439
vn -0.0000 -0.9961 -0.0877
vn -0.0445 -0.9959 -0.0792
vn -0.0535 -0.9985 -0.0092
vn -0.0027 -1.0000 -0.0030
vn -0.0000 -1.0000 -0.0000
vn -0.0415 -0.9991 0.0008
vn -0.0048 -0.9996 -0.0274
vn -0.0754 -0.9957 -0.0545
vn -0.1330 -0.9891 0.0631
vn -0.0676 -0.9975 0.0185
vn -0.2174 0.3041 0.9275
vn -0.1101 0.4271 0.8975
vn -0.0801 0.1356 0.9875
vn -0.2314 0.1970 0.9527
vn -0.0734 0.3673 0.9272
vn -0.0772 0.6758 0.7330
vn -0.0767 0.7592 0.6463
vn -0.1510 0.3791 0.9129
vn -0.0000 0.3123 0.9500
vn 0.7774 -0.0079 0.6290
vn 0.7024 0.2066 0.6811
vn 0.7672 0.0300 0.6407
vn 0.9972 0.0398 -0.0632
vn 0.9048 0.3986 0.1497
vn 0.9355 0.3528 0.0181
vn 0.9780 0.2049 0.0399
vn 0.9316 0.3369 0.1362
vn 0.9322 0.2699 0.2411
vn 0.9306 0.3211 0.1755
vn 0.9233 0.3423 0.1742
vn 0.7113 -0.1834 -0.6786
vn -0.0519 0.0108 -0.9986
vn 0.0411 0.1707 -0.9845
vn 0.0153 0.2420 -0.9702
vn -0.0224 0.0623 -0.9978
vn -0.0794 0.6368 -0.7669
vn -0.1134 0.4886 -0.8651
vn 0.0231 0.3488 -0.9369
vn -0.0539 0.3136 -0.9480
vn -0.9725 0.0169 -0.2322
vn -0.9532 0.2146 -0.2130
vn -0.9076 0.1243 -0.4011
vn -0.8922 0.0061 -0.4515
vn -0.9958 -0.0485 -0.0781
vn -0.9906 -0.0965 -0.0965
vn -0.9738 0.2242 -0.0370
vn -0.9999 -0.0097 -0.0097
vn -0.7248 0.6855 -0.0690
vn -0.5082 0.8609 -0.0229
vn -0.7699 0.6381 -0.0074
vn -0.7793 0.6265 -0.0169
vn -0.7666 0.6421 -0.0052
vn -0.9982 -0.0000 -0.0603
vn -0.9992 0.0289 0.0289
vn -0.9928 -0.0000 -0.1195
vn -0.9930 -0.0475 -0.1083
vn -0.8904 0.0123 -0.4550
vn -0.9967 0.0578 0.0578
vn 0.0918 0.8036 -0.5880
vn 0.1065 0.7993 -0.5914
vn 0.0999 0.8015 -0.5896
vn -0.0086 0.8312 -0.5559
vn -0.0464 0.7694 -0.6370
vn -0.1214 0.6158 -0.7785
vn -0.0580 -0.1228 -0.9907
vn -0.0914 -0.0991 -0.9909
vn -0.1627 -0.0983 -0.9818
vn -0.1304 0.0179 -0.9913
vn -0.1049 0.1049 -0.9889
vn 0.7019 0.4692 -0.5358
vn -0.1408 0.0801 -0.9868
vn -0.1499 -0.0758 -0.9858
vn -0.1253 0.2654 -0.9560
vn 0.9160 0.3637 0.1693
vn 0.9464 0.3130 0.0800
vn 0.9310 0.3544 0.0869
vn 0.9995 -0.0221 -0.0221
vn 0.9994 -0.0246 -0.0246
vn 0.6762 0.0653 0.7338
vn 0.7304 0.5441 0.4129
vn 0.7981 -0.1090 0.5926
vn 0.9990 -0.0319 -0.0319
vn 0.7995 0.5572 0.2244
vn 0.8804 0.4508 0.1470
vn 0.0043 0.8805 0.4739
vn 0.0164 0.8811 0.4726
vn -0.0043 0.8800 0.4749
vn 0.7016 0.4337 0.5654
vn 0.4924 0.5800 0.6490
vn 0.0068 0.1293 0.9916
vn -0.1035 0.2113 0.9719
vn -0.0231 0.1314 0.9911
vn -0.0089 0.2423 0.9702
vn 0.0100 0.3847 0.9230
vn -0.3050 0.2883 0.9076
vn -0.3811 0.2547 0.8888
vn 0.0150 -0.9999 -0.0031
vn 0.0393 -0.9982 -0.0450
vn -0.0133 -0.9940 -0.1083
vn -0.0583 -0.9981 -0.0214
vn -0.0830 -0.9965 0.0034
vn -0.0430 -0.9984 -0.0376
vn -0.0605 -0.9978 -0.0267
vn -0.0925 -0.9955 -0.0225
vn -0.1106 -0.9917 -0.0663
vn -0.9616 0.2644 0.0741
vn -0.9866 0.1230 0.1068
vn -0.9843 0.1438 0.1022
vn 0.0709 0.4587 -0.8857
vn -0.7450 0.4878 -0.4550
vn 0.6883 0.5570 -0.4648
vn 0.3784 0.9039 0.1997
vn 0.4472 0.7445 -0.4957
vn 0.8209 0.5219 0.2317
vn 0.8235 0.5562 0.1120
vn -0.1105 0.9877 -0.1105
vn -0.9766 0.0958 0.1926
vn -0.9628 0.1342 0.2344
vn -0.9029 0.2450 0.3531
vn -0.2218 0.9725 -0.0716
vn -0.4107 0.7682 0.4911
vn 0.6042 0.3302 0.7252
vn 0.5742 0.5192 0.6331
vn 0.5969 0.3971 0.6971
vn 0.5614 0.5670 0.6027
vn 0.7337 0.6133 0.2926
vn 0.0811 0.8220 -0.5638
vn 0.1591 0.8076 -0.5679
vn 0.2791 0.7749 -0.5671
vt 0.562500 0.187500
vt 0.625000 0.187500
vt 0.625000 0.250000
vt 0.562500 0.250000
vt 0.562500 0.437500
vt 0.625000 0.437500
vt 0.625000 0.500000
vt 0.562500 0.500000
vt 0.562500 0.687500
vt 0.625000 0.687500
vt 0.625000 0.750000
vt 0.562500 0.750000
vt 0.562500 0.937500
vt 0.625000 0.937500
vt 0.625000 1.000000
vt 0.562500 1.000000
vt 0.312500 0.687500
vt 0.375000 0.687500
vt 0.375000 0.750000
vt 0.312500 0.750000
vt 0.812500 0.687500
vt 0.875000 0.687500
vt 0.875000 0.750000
vt 0.812500 0.750000
vt 0.687500 0.687500
vt 0.750000 0.687500
vt 0.750000 0.750000
vt 0.687500 0.750000
vt 0.687500 0.562500
vt 0.750000 0.562500
vt 0.750000 0.625000
vt 0.687500 0.625000
vt 0.812500 0.562500
vt 0.875000 0.562500
vt 0.875000 0.625000
vt 0.812500 0.625000
vt 0.187500 0.687500
vt 0.250000 0.687500
vt 0.250000 0.750000
vt 0.187500 0.750000
vt 0.187500 0.562500
vt 0.250000 0.562500
vt 0.250000 0.625000
vt 0.187500 0.625000
vt 0.312500 0.562500
vt 0.375000 0.562500
vt 0.375000 0.625000
vt 0.312500 0.625000
vt 0.437500 0.937500
vt 0.500000 0.937500
vt 0.500000 1.000000
vt 0.437500 1.000000
vt 0.437500 0.812500
vt 0.500000 0.812500
vt 0.500000 0.875000
vt 0.437500 0.875000
vt 0.562500 0.812500
vt 0.625000 0.812500
vt 0.625000 0.875000
vt 0.562500 0.875000
vt 0.437500 0.687500
vt 0.500000 0.687500
vt 0.500000 0.750000
vt 0.437500 0.750000
vt 0.437500 0.562500
vt 0.500000 0.562500
vt 0.500000 0.625000
vt 0.437500 0.625000
vt 0.562500 0.562500
vt 0.625000 0.562500
vt 0.625000 0.625000
vt 0.562500 0.625000
vt 0.437500 0.437500
vt 0.500000 0.437500
vt 0.500000 0.500000
vt 0.437500 0.500000
vt 0.437500 0.312500
vt 0.500000 0.312500
vt 0.500000 0.375000
vt 0.437500 0.375000
vt 0.562500 0.312500
vt 0.625000 0.312500
vt 0.625000 0.375000
vt 0.562500 0.375000
vt 0.437500 0.187500
vt 0.500000 0.187500
vt 0.500000 0.250000
vt 0.437500 0.250000
vt 0.437500 0.062500
vt 0.500000 0.062500
vt 0.500000 0.125000
vt 0.437500 0.125000
vt 0.562500 0.062500
vt 0.625000 0.062500
vt 0.625000 0.125000
vt 0.562500 0.125000
vt 0.500000 0.000000
vt 0.562500 0.000000
vt 0.625000 0.000000
vt 0.375000 0.062500
vt 0.375000 0.125000
vt 0.375000 0.000000
vt 0.437500 0.000000
vt 0.375000 0.187500
vt 0.375000 0.250000
vt 0.375000 0.312500
vt 0.375000 0.375000
vt 0.375000 0.437500
vt 0.375000 0.500000
vt 0.375000 0.812500
vt 0.375000 0.875000
vt 0.375000 0.937500
vt 0.375000 1.000000
vt 0.250000 0.500000
vt 0.312500 0.500000
vt 0.125000 0.562500
vt 0.125000 0.625000
vt 0.125000 0.500000
vt 0.187500 0.500000
vt 0.125000 0.687500
vt 0.125000 0.750000
vt 0.750000 0.500000
vt 0.812500 0.500000
vt 0.875000 0.500000
vt 0.687500 0.500000
s 1
usemtl Material.001
f 98/1/1 29/2/2 4/3/3 42/4/4
f 97/5/5 32/6/6 8/7/7 45/8/7
f 96/9/8 35/10/9 6/11/10 48/12/11
f 95/13/12 38/14/13 2/15/14 28/16/15
f 94/17/16 46/18/17 5/19/18 37/20/19
f 93/21/20 41/22/21 2/23/14 38/24/13
f 92/25/22 51/26/22 20/27/23 50/28/24
f 91/29/25 52/30/26 21/31/27 53/32/28
f 90/33/29 29/34/29 11/35/29 54/36/29
f 89/37/30 55/38/31 19/39/32 49/40/33
f 88/41/34 56/42/35 22/43/36 57/44/37
f 87/45/38 34/46/39 16/47/40 58/48/41
f 86/49/42 59/50/43 10/51/44 40/52/45
f 85/53/46 60/54/47 23/55/48 61/56/49
f 84/57/50 50/58/24 20/59/23 62/60/50
f 83/61/51 63/62/52 18/63/52 36/64/53
f 82/65/54 64/66/55 24/67/56 65/68/57
f 81/69/58 47/70/59 17/71/60 66/72/61
f 80/73/62 67/74/62 15/75/62 33/76/62
f 79/77/63 68/78/64 25/79/65 69/80/66
f 78/81/67 44/82/68 14/83/69 70/84/70
f 77/85/71 71/86/72 12/87/73 30/88/74
f 76/89/75 72/90/76 26/91/77 73/92/78
f 75/93/79 41/94/21 11/95/80 74/96/81
f 72/90/82 75/93/79 74/96/81 26/91/77
f 10/97/83 28/98/15 75/93/79 72/90/82
f 28/98/15 2/99/14 41/94/21 75/93/79
f 27/100/84 76/89/75 73/92/78 9/101/85
f 1/102/86 40/103/87 76/89/75 27/100/84
f 40/103/87 10/97/76 72/90/76 76/89/75
f 39/104/88 77/85/71 30/88/74 3/105/88
f 9/101/85 73/92/78 77/85/71 39/104/89
f 73/92/78 26/91/77 71/86/72 77/85/71
f 68/78/90 78/81/67 70/84/91 25/79/92
f 12/87/93 42/4/94 78/81/67 68/78/90
f 42/4/94 4/3/95 44/82/68 78/81/67
f 31/106/96 79/77/63 69/80/66 13/107/97
f 3/105/98 30/88/99 79/77/63 31/106/96
f 30/88/99 12/87/100 68/78/64 79/77/63
f 43/108/101 80/73/101 33/76/101 7/109/101
f 13/107/97 69/80/66 80/73/102 43/108/103
f 69/80/66 25/79/65 67/74/104 80/73/102
f 64/66/55 81/69/58 66/72/61 24/67/56
f 15/75/105 45/8/106 81/69/58 64/66/55
f 45/8/106 8/7/107 47/70/59 81/69/58
f 34/46/108 82/65/54 65/68/57 16/47/109
f 7/109/110 33/76/110 82/65/110 34/46/110
f 33/76/111 15/75/105 64/66/55 82/65/111
f 46/18/112 83/61/51 36/64/53 5/19/112
f 16/47/109 65/68/57 83/61/113 46/18/113
f 65/68/57 24/67/56 63/62/114 83/61/115
f 60/54/47 84/57/116 62/60/117 23/55/48
f 18/63/118 48/12/118 84/57/116 60/54/47
f 48/12/11 6/11/10 50/58/119 84/57/120
f 37/110/121 85/53/46 61/56/49 19/111/122
f 5/19/123 36/64/124 85/53/46 37/110/121
f 36/64/124 18/63/125 60/54/47 85/53/46
f 49/112/126 86/49/42 40/52/45 1/113/127
f 19/111/122 61/56/49 86/49/42 49/112/126
f 61/56/49 23/55/48 59/50/43 86/49/42
f 56/42/35 87/45/38 58/48/41 22/43/36
f 13/114/128 43/115/129 87/45/38 56/42/35
f 43/115/129 7/109/130 34/46/39 87/45/38
f 39/116/131 88/41/34 57/44/37 9/117/132
f 3/118/133 31/119/134 88/41/34 39/116/131
f 31/119/134 13/114/128 56/42/35 88/41/34
f 27/120/135 89/37/30 49/40/33 1/121/136
f 9/117/132 57/44/37 89/37/30 27/120/135
f 57/44/37 22/43/36 55/38/31 89/37/30
f 52/30/137 90/33/137 54/36/138 21/31/139
f 14/122/69 44/123/68 90/33/140 52/30/140
f 44/123/141 4/124/141 29/34/141 90/33/141
f 47/70/142 91/29/25 53/32/28 17/71/142
f 8/7/143 32/125/143 91/29/143 47/70/143
f 32/125/144 14/122/144 52/30/26 91/29/25
f 35/10/9 92/25/145 50/28/119 6/11/10
f 17/71/60 53/32/146 92/25/145 35/10/9
f 53/32/147 21/31/147 51/26/147 92/25/147
f 51/26/148 93/21/149 38/24/150 20/27/150
f 21/31/139 54/36/138 93/21/149 51/26/148
f 54/36/151 11/35/80 41/22/21 93/21/20
f 55/38/31 94/17/16 37/20/19 19/39/32
f 22/43/36 58/48/41 94/17/16 55/38/31
f 58/48/41 16/47/40 46/18/17 94/17/16
f 59/50/152 95/13/12 28/16/15 10/51/152
f 23/55/153 62/60/154 95/13/155 59/50/153
f 62/60/154 20/59/156 38/14/156 95/13/155
f 63/62/114 96/9/8 48/12/11 18/63/157
f 24/67/56 66/72/61 96/9/8 63/62/114
f 66/72/61 17/71/60 35/10/9 96/9/8
f 67/74/158 97/5/159 45/8/160 15/75/160
f 25/79/92 70/84/91 97/5/159 67/74/158
f 70/84/70 14/83/69 32/6/6 97/5/5
f 71/86/72 98/1/1 42/4/4 12/87/73
f 26/91/77 74/96/81 98/1/1 71/86/72
f 74/96/81 11/95/80 29/2/2 98/1/1
